<svg width="1200" height="300" viewBox="0 0 1200 300" fill="none" xmlns="http://www.w3.org/2000/svg" role="img" aria-label="An unfinished canvas representing the next project">
  <defs><linearGradient id="bg" x1="0" y1="0" x2="1200" y2="300"><stop stop-color="#F8F4EB"/><stop offset="1" stop-color="#EAF0F1"/></linearGradient><linearGradient id="stroke" x1="330" y1="0" x2="870" y2="0"><stop stop-color="#B88C43"/><stop offset=".5" stop-color="#5E7F93"/><stop offset="1" stop-color="#273C49"/></linearGradient></defs>
  <style>.sketch{stroke-dasharray:720;stroke-dashoffset:720;animation:sketch 8s ease-in-out infinite}.cursor{animation:float 4s ease-in-out infinite}@keyframes sketch{0%,12%{stroke-dashoffset:720}60%,88%{stroke-dashoffset:0}100%{stroke-dashoffset:-720}}@keyframes float{0%,100%{transform:translateY(0)}50%{transform:translateY(-7px)}}@media(prefers-reduced-motion:reduce){.sketch,.cursor{animation:none;stroke-dashoffset:0}}</style>
  <rect x="8" y="8" width="1184" height="284" rx="30" fill="url(#bg)" stroke="#D1C4AA"/>
  <path d="M398 244L436 72H764L802 244M370 244H830M468 244L452 276M732 244L748 276" stroke="#8B7858" stroke-width="4" stroke-linecap="round"/>
  <rect x="449" y="54" width="302" height="178" rx="8" fill="#FFFDF7" stroke="#C7BDAA" stroke-width="2"/>
  <path d="M492 176C532 91 590 204 624 123C653 55 687 128 712 90" stroke="url(#stroke)" stroke-width="4" stroke-linecap="round" class="sketch"/>
  <g class="cursor"><path d="M729 79L744 93L731 96L725 110L717 78Z" fill="#263D4A"/><circle cx="747" cy="72" r="3" fill="#B88C43"/></g>
  <text x="600" y="262" text-anchor="middle" fill="#75674F" font-family="ui-monospace,SFMono-Regular,Menlo,monospace" font-size="11" letter-spacing="3">THE NEXT THING I BUILD HAS NOT BEEN DRAWN YET</text>
</svg>
